<svg width="20" height="18" viewBox="0 0 20 18" fill="none" xmlns="http://www.w3.org/2000/svg">
<path id="Share" d="M18.4688 0.556154C18.1058 0.467154 17.6932 0.481165 17.1876 0.618165C14.2584 1.41217 2.6145 5.19615 1.6563 5.62015C0.611999 6.08216 0.00939927 6.89615 9.9268e-05 7.96415C-0.0123007 9.39215 1.1387 10.5132 2.5001 10.4652C2.5439 10.4642 4.2284 10.4872 5.1876 10.4972C5.1876 10.4972 6.0438 14.7782 6.0645 14.8292C6.3144 15.4432 6.9006 15.6262 7.4063 15.4052L10.2501 14.1542C10.572 14.4712 12.7364 16.5622 12.9688 16.7492C13.6614 17.3052 14.2599 17.4802 15.0001 17.4992C16.1918 17.5302 17.2328 16.8292 17.7813 15.6862C18.1256 14.9692 19.7303 4.92817 19.8751 3.93216C20.105 2.35116 20.053 1.73016 19.4063 1.08716C19.1464 0.82916 18.8319 0.644154 18.4688 0.556154ZM18 2.49515C18 2.49515 18.0486 2.67215 17.9063 3.65015C17.3972 7.15215 16.1907 14.3172 15.9376 14.9042C15.7647 15.3062 15.4182 15.5092 15.0313 15.4982C14.6908 15.4892 14.5213 15.4292 14.2188 15.1862C14.0632 15.0612 13.3631 14.3962 12.3751 13.4352C12.3627 13.4232 10.4045 11.5122 10.4045 11.5122C10.2136 11.3222 10.0342 11.2092 9.6583 11.2052C9.4397 11.2052 9.1512 11.3712 9.1512 11.3712L7.6474 12.6442L7.1251 10.0902L13.4063 7.40217C13.9137 7.18417 14.1558 6.59615 13.9376 6.08915C13.7195 5.58115 13.1325 5.33917 12.6251 5.55717L5.8126 8.49616C5.4247 8.49416 2.5342 8.46116 2.4376 8.46516C2.2151 8.47216 1.9976 8.25415 2.0001 7.96415C2.0021 7.73215 2.1044 7.59418 2.4688 7.43318C3.3134 7.05918 14.8167 3.32815 17.6559 2.55915C17.9237 2.48615 18 2.49515 18 2.49515Z" fill="#FFC98B"/>
</svg>
